# xmcd
#
# Track frame offsets:
# 150
# 39753
# 69762
# 103675
# 127303
# 155206
# 181176
# 209096
# 231675
# 262254
# 306078
#
# Disc length: 4260 seconds
#
#
# Revision: 0
# Processed by: cddbd v1.5.2PL0 Copyright (c) Steve Scherf et al.
# Submitted via: FreeRIP 2.96 
#
DISCID=a710a20b
DTITLE=Iny Lorentz - Die Rose von Asturien CD2v6
DYEAR=2009
DGENRE=Speech
TTITLE0=12 Die Rose von Asturien
TTITLE1=13 Die Rose von Asturien
TTITLE2=14 Die Rose von Asturien
TTITLE3=15 Die Rose von Asturien
TTITLE4=16 Die Rose von Asturien
TTITLE5=17 Die Rose von Asturien
TTITLE6=18 Die Rose von Asturien
TTITLE7=19 Die Rose von Asturien
TTITLE8=20 Die Rose von Asturien
TTITLE9=21 Die Rose von Asturien
TTITLE10=22 Die Rose von Asturien
EXTD=gelesen von Dana Geissler\n
EXTT0=
EXTT1=
EXTT2=
EXTT3=
EXTT4=
EXTT5=
EXTT6=
EXTT7=
EXTT8=
EXTT9=
EXTT10=
PLAYORDER=
